<svg height="128" width="128" xmlns="http://www.w3.org/2000/svg"><rect fill="#363d52" height="128" rx="2" width="128" y="0"/><g transform="translate(64,64) scale(0.6)"><path d="M-28.571-7.857c0-2.364 2.308-4.286 5.143-4.286 2.835 0 5.143 1.922 5.143 4.286 0 2.363-2.308 4.286-5.143 4.286-2.835 0-5.143-1.923-5.143-4.286m34.285 0c0-2.364 2.308-4.286 5.143-4.286 2.835 0 5.143 1.922 5.143 4.286 0 2.363-2.308 4.286-5.143 4.286-2.835 0-5.143-1.923-5.143-4.286m12.433 19.348c-.68 5.76-7.382 7.787-11.832 9.429-4.877 1.795-10.155 3.036-15.601 3.036-5.446 0-10.724-1.241-15.6-3.036-4.45-1.642-11.152-3.669-11.832-9.429-.536-4.536 2.503-7.79 3.036-11.455.515-3.527-1.393-5.91-.703-9.527.706-3.705 3.842-5.473 5.484-8.875 1.744-3.616.714-7.42 2.766-10.518 2.055-3.1 5.955-3.134 6.77-6.562.774-3.26-.962-6.607 1.543-8.875 2.583-2.34 6.326-1.554 9.932-1.554 3.606 0 7.349-.786 9.932 1.554 2.505 2.268.77 5.616 1.543 8.875.815 3.428 4.715 3.464 6.77 6.562 2.052 3.098 1.022 6.902 2.766 10.518 1.642 3.402 4.778 5.17 5.484 8.875.69 3.617-1.218 6- .703 9.527.533 3.665 3.572 6.92 3.036 11.455" fill="#e0e0e0"/></g></svg>
